<svg width="96" height="82" viewBox="0 0 96 82" fill="none" xmlns="http://www.w3.org/2000/svg">
<path fill-rule="evenodd" clip-rule="evenodd" d="M25 0H4.5C0.9 0 0 4 0 6V74.5C0 80.1 3.33333 81.5 5 81.5H90C94.4 81.5 95.5 77.8333 95.5 76V17.5C95.5 9.5 88.8333 7.5 85.5 7.5H36C34.3333 5.66667 30.8 1.8 30 1C29.2 0.2 27.6667 0 27 0H25ZM25 5H7C5.4 5 5 6.66667 5 7.5V76H90V26.5H50C46.8 26.5 44.6667 24.8333 44 24C39.5 19 30.1 8.6 28.5 7C26.9 5.4 25.5 5 25 5ZM40 12.5H86C87.3333 12.5 90 13.3 90 16.5V21H47.5L40 12.5Z" fill="#00356B"/>
</svg>
