<svg xmlns="http://www.w3.org/2000/svg" width="48" height="48" viewBox="0 0 48 48"><g fill="none" fill-rule="evenodd" stroke="#00356B" stroke-width="2" transform="translate(4 4)"><path d="M8.5 20H12a1 1 0 0 1 1 1v18a1 1 0 0 1-1 1H8.5A4.5 4.5 0 0 1 4 35.5v-11A4.5 4.5 0 0 1 8.5 20zm23 0H28a1 1 0 0 0-1 1v18a1 1 0 0 0 1 1h3.5a4.5 4.5 0 0 0 4.5-4.5v-11a4.5 4.5 0 0 0-4.5-4.5z"/><rect width="4" height="10" y="25" rx="1"/><rect width="4" height="10" x="36" y="25" rx="1"/><path d="M40 30V20C40 8.954 31.046 0 20 0S0 8.954 0 20v10"/></g></svg>