<?xml version="1.0" encoding="UTF-8"?>
<svg width="44px" height="43px" viewBox="0 0 44 43" version="1.1" xmlns="http://www.w3.org/2000/svg" xmlns:xlink="http://www.w3.org/1999/xlink">
    <title>icons/newspaper</title>
    <g id="icons/newspaper" stroke="none" stroke-width="1" fill="none" fill-rule="evenodd">
        <g id="Group-12-Copy-4" transform="translate(2, 3)" stroke="#00356B" stroke-width="2">
            <path d="M6.03929204,0 L39,0 C39.5522847,-1.01453063e-16 40,0.44771525 40,1 L40,37 C40,37.5522847 39.5522847,38 39,38 L3,38 L3,38" id="Path-Copy-5" stroke-linecap="round"></path>
            <path d="M6,0 L6,35 C6,36.6568542 4.65685425,38 3,38 C1.34314575,38 2.27475129e-13,36.6568542 2.27373675e-13,35 L2.27373675e-13,6 L2.27373675e-13,6" id="Path-Copy-6" stroke-linecap="round"></path>
            <line x1="3" y1="6" x2="3" y2="35" id="Line-3-Copy-3" stroke-linecap="round"></line>
            <line x1="10" y1="17.5" x2="21" y2="17.5" id="Line-4-Copy-53" stroke-linecap="round"></line>
            <line x1="25" y1="27.5" x2="36" y2="27.5" id="Line-4-Copy-54" stroke-linecap="round"></line>
            <line x1="25" y1="32.5" x2="36" y2="32.5" id="Line-4-Copy-56" stroke-linecap="round"></line>
            <line x1="10" y1="12.5" x2="21" y2="12.5" id="Line-4-Copy-58" stroke-linecap="round"></line>
            <line x1="25" y1="22.5" x2="36" y2="22.5" id="Line-4-Copy-60" stroke-linecap="round"></line>
            <rect id="Rectangle-Copy-27" x="25" y="12.5" width="11" height="5" rx="1"></rect>
            <rect id="Rectangle-Copy-28" x="10" y="22.5" width="11" height="10" rx="1"></rect>
            <path d="M3,6 C3,4 2.50062942,3 1.50188826,3 C0.503147093,3 0.00251767461,4 0,6" id="Path-24"></path>
            <line x1="5.5" y1="3" x2="2.5" y2="3" id="Line-37" stroke-linecap="square"></line>
            <line x1="9.5" y1="4.5" x2="36.5" y2="4.5" id="Line-3" stroke-linecap="round"></line>
            <line x1="9.5" y1="7.5" x2="36.5" y2="7.5" id="Line-3-Copy-5" stroke-linecap="round"></line>
        </g>
    </g>
</svg>