<?xml version="1.0" encoding="UTF-8"?>
<svg width="44px" height="42px" viewBox="0 0 44 42" version="1.1" xmlns="http://www.w3.org/2000/svg" xmlns:xlink="http://www.w3.org/1999/xlink">
    <title>icons/numismatics</title>
    <g id="icons/numismatics" stroke="none" stroke-width="1" fill="none" fill-rule="evenodd">
        <g id="Group-25-Copy-3" transform="translate(3, 2)">
            <circle id="Oval-Copy-67" stroke="#00356B" stroke-width="2" cx="13.5" cy="13.5" r="10.125"></circle>
            <circle id="Oval-Copy-68" stroke="#00356B" stroke-width="2" cx="13.5" cy="13.5" r="13.5"></circle>
            <path d="M25.3197212,38.2110793 C32.7755653,38.2110793 38.8197212,32.1669235 38.8197212,24.7110793 C38.8197212,17.2552352 32.7755653,11.2110793 25.3197212,11.2110793 C19.0322145,11.2110793 13.7486348,15.5094012 12.2471422,21.3278846" id="Oval-Copy-71" stroke="#00356B" stroke-width="2" transform="translate(25.5334, 24.7111) rotate(81) translate(-25.5334, -24.7111)"></path>
            <path d="M25.352988,35.261964 C31.2452548,35.261964 36.0218809,30.4853379 36.0218809,24.5930711 C36.0218809,18.7008042 31.2452548,13.9241782 25.352988,13.9241782 C20.3840446,13.9241782 16.208493,17.3210919 15.0218809,21.9193716" id="Oval-Copy-72" stroke="#00356B" stroke-width="2" transform="translate(25.5219, 24.5931) rotate(81) translate(-25.5219, -24.5931)"></path>
            <line x1="13.5" y1="-2.77902701e-14" x2="13.5" y2="2.8125" id="Path-19-Copy" stroke="#00356B" stroke-width="2"></line>
            <line x1="22.6253554" y1="4.29149272" x2="22.6253554" y2="7.66649272" id="Path-19-Copy-2" stroke="#00356B" stroke-width="2" transform="translate(22.6254, 5.979) rotate(51) translate(-22.6254, -5.979)"></line>
            <line x1="24.7644168" y1="15.060965" x2="24.7644168" y2="18.435965" id="Path-19-Copy-3" stroke="#00356B" stroke-width="2" transform="translate(24.7644, 16.7485) rotate(103) translate(-24.7644, -16.7485)"></line>
            <line x1="18.3159162" y1="22.5569283" x2="18.3159162" y2="25.9319283" id="Path-19-Copy-4" stroke="#00356B" stroke-width="2" transform="translate(18.3159, 24.2444) rotate(154) translate(-18.3159, -24.2444)"></line>
            <line x1="8.68408377" y1="22.5569283" x2="8.68408377" y2="25.9319283" id="Path-19-Copy-5" stroke="#00356B" stroke-width="2" transform="translate(8.6841, 24.2444) rotate(206) translate(-8.6841, -24.2444)"></line>
            <line x1="2.23558316" y1="15.060965" x2="2.23558316" y2="18.435965" id="Path-19-Copy-6" stroke="#00356B" stroke-width="2" transform="translate(2.2356, 16.7485) rotate(257) translate(-2.2356, -16.7485)"></line>
            <line x1="4.3746446" y1="4.29149272" x2="4.3746446" y2="7.66649272" id="Path-19-Copy-7" stroke="#00356B" stroke-width="2" transform="translate(4.3746, 5.979) rotate(309) translate(-4.3746, -5.979)"></line>
            <g id="Group-3-Copy-2" transform="translate(8.4375, 6.75)" stroke="#00356B" stroke-width="2">
                <path d="M1.08336584,2.16019899 C1.04050242,1.84609897 1.32992617,1.42563896 1.95163708,0.898818946 C2.88420345,0.108588929 5.32095029,-0.365529343 7.09168843,0.355875706 C8.86242657,1.07728076 10.125,2.64051051 10.125,4.13352752 C10.125,5.1288722 9.74727304,5.85402011 8.99181913,6.30897126 C9.08476724,7.37573297 8.95687502,8.09431906 8.60814246,8.46472952 C8.08504364,9.0203452 7.94320995,9.26024796 8.16673853,10.4723238 C8.39026711,11.6843997 9.38980712,12.7032785 9.38980712,12.7032785 C9.38980712,12.7032785 7.79431933,12.5515662 6.07813342,13.1838554 C4.93400949,13.6053815 3.64208039,13.6053815 2.20234613,13.1838554 C3.1493864,12.0928492 3.62290654,11.2767506 3.62290654,10.7355597 C3.62290654,9.92377336 3.5625904,9.19224034 2.63002403,9.19224034 C1.69745766,9.19224034 0.734016183,9.28553293 0.908691012,8.26537637 C1.0251409,7.58527199 1.08336584,7.17094042 1.08336584,7.02238166 L0,7.02238166 L1.08336584,4.97630775 C0.864381975,4.1409173 0.864381975,3.25125633 1.08336584,2.30732483" id="Path-42" stroke-linejoin="round"></path>
                <path d="M8.38136382,8.82839993 L6.7797465,8.26537637 C6.19013425,8.11684399 6.04273119,7.65102455 6.33753731,6.86791805 C6.7797465,5.6932583 7.32088893,5.3181749 6.65731165,4.6716713 C5.99373437,4.0251677 5.01992914,4.90400329 4.64502742,5.24772043 C4.27012569,5.59143758 3.70587896,5.92398605 3.96096082,4.86308092 C4.21604269,3.80217578 2.62101137,2.64073136 2.07879422,2.42487968 C1.71731611,2.28097855 1.24605708,2.19441529 0.665017099,2.16518989" id="Path-43"></path>
            </g>
            <path d="M24.8,32.5 L26.2,32.5 C26.6418278,32.5 27,32.1418278 27,31.7 L27,30.3 C27,29.8581722 26.6418278,29.5 26.2,29.5 L24.8,29.5 C24.3581722,29.5 24,29.8581722 24,30.3 L24,31.7 C24,32.1418278 24.3581722,32.5 24.8,32.5 Z" id="Fill-6-Copy-11" fill="#00356B"></path>
            <path d="M31.55,25.5 L32.95,25.5 C33.3918278,25.5 33.75,25.1418278 33.75,24.7 L33.75,23.3 C33.75,22.8581722 33.3918278,22.5 32.95,22.5 L31.55,22.5 C31.1081722,22.5 30.75,22.8581722 30.75,23.3 L30.75,24.7 C30.75,25.1418278 31.1081722,25.5 31.55,25.5 Z" id="Fill-5-Copy-11" fill="#00356B" transform="translate(32.25, 24) rotate(-270) translate(-32.25, -24)"></path>
            <path d="M24.4895339,21 L27.9,21 C28.2313708,21 28.5,21.2686292 28.5,21.6 L28.5,26.4 C28.5,26.7313708 28.2313708,27 27.9,27 L23.1,27 C22.7686292,27 22.5,26.7313708 22.5,26.4 L22.5,23.7793064 L22.5,23.7793064" id="Rectangle-Copy-37" stroke="#00356B" stroke-width="2"></path>
        </g>
    </g>
</svg>