<svg xmlns="http://www.w3.org/2000/svg" width="48" height="48" viewBox="0 0 48 48"><g fill="none" fill-rule="evenodd" stroke="#00356B" stroke-width="2"><g transform="translate(8.5 7)"><rect width="35" height="30" x=".5" y="4" stroke-linejoin="round" rx="2"/><path stroke-linejoin="round" d="M.5 6a2 2 0 0 1 2-2l27-4a2 2 0 0 1 2 2v2"/><path d="M0 26a7 7 0 0 0 0-14"/><path stroke-linejoin="round" d="M26.5 8c0 2.761 2.015 5 4.5 5 .17 0 .336-.01.5-.03v12.06A4.1 4.1 0 0 0 31 25c-2.485 0-4.5 2.239-4.5 5H.5V8h26z"/></g><g fill="#FFF" stroke-linejoin="round" transform="translate(4 23)"><rect width="23.28" height="6" x=".86" y="12" rx=".86"/><rect width="23.28" height="6" y="6" rx=".86"/><rect width="23.28" height="6" x="1.72" rx=".86"/></g></g></svg>