<svg xmlns="http://www.w3.org/2000/svg" width="48" height="48" viewBox="0 0 48 48"><g fill="none" fill-rule="evenodd" stroke="#00356B" stroke-width="2"><g stroke-linejoin="round"><path d="M28 5l8.66 5v10L28 25l-8.66-5V10z"/><path d="M28.19 25V15l-8.85-5L28 5l8.66 5-8.47 5z"/></g><g transform="translate(4 25)"><rect width="5.37" height="15" x="1" y="1" rx="1"/><path stroke-linecap="round" d="M6.611 4.623c2.169-1.284 4.576-1.925 7.223-1.925 3.97 0 8.02 3.373 10.513 3.373 2.493 0 6.116-2.16 6.594 0 .478 2.16-5.613 4.23-9.848 3.777"/><path stroke-linecap="round" d="M6.611 13.14c9.53.758 15.375 1.138 17.536 1.138 3.242 0 12.91-6.174 14.91-7.196 2-1.022.616-4.519-2.262-3.172 0 0-2.132 1.21-6.397 3.627"/></g></g></svg>