<svg xmlns="http://www.w3.org/2000/svg" width="48" height="48" viewBox="0 0 48 48"><g fill="none" fill-rule="evenodd" stroke="#00356B" stroke-width="2" transform="translate(4 11)"><path d="M19.194 6.04C16.177 3.062.554 1.19.008 9.74c-.216 3.38 4.24 4.407 5.944 5.098 1.704.69.983 3.513 3.35 3.513M20.806 6.04c3.017-2.979 18.64-4.851 19.186 3.7.216 3.38-4.24 4.407-5.944 5.098-1.704.69-.983 3.513-3.35 3.513"/><path stroke-linecap="round" d="M17.592 0c0 1.904 1.165 5.746 2.601 5.746 1.437 0 2.601-3.842 2.601-5.746"/><ellipse cx="20.19" cy="12.93" rx="2.6" ry="7.18"/><path d="M20.193 20.111c-1.523 3.88-4.882 7.805-9.129 3.395-4.246-4.41.134-14.437 6.754-14.437-.845 6.685.556 10.593 2.375 11.042z"/><path d="M19.788 20.111c1.523 3.88 4.882 7.805 9.129 3.395 4.246-4.41-.134-14.437-6.754-14.437.845 6.685-.556 10.593-2.375 11.042z"/></g></svg>