<svg xmlns="http://www.w3.org/2000/svg" width="48" height="48" viewBox="0 0 48 48"><g fill="none" fill-rule="evenodd" stroke="#00356B" stroke-width="2" transform="translate(4 8)"><path d="M4.636 0H16a4 4 0 0 1 4 4v21.947a1 1 0 0 1-1 1H4.636a1 1 0 0 1-1-1V1a1 1 0 0 1 1-1z"/><path d="M1 3.368h2.636v22.58a1 1 0 0 0 1 1H20v2.368a1 1 0 0 1-1 1H1a1 1 0 0 1-1-1V4.368a1 1 0 0 1 1-1zm38 0h-2.636v22.58a1 1 0 0 1-1 1H20v2.368a1 1 0 0 0 1 1h18a1 1 0 0 0 1-1V4.368a1 1 0 0 0-1-1z"/><path d="M24 0h11.364a1 1 0 0 1 1 1v24.947a1 1 0 0 1-1 1H21a1 1 0 0 1-1-1V4a4 4 0 0 1 4-4z"/><circle cx="20.09" cy="31.32" r="1"/></g></svg>