<svg xmlns="http://www.w3.org/2000/svg" width="96" height="96" viewBox="0 0 96 96"><g fill="none" fill-rule="evenodd" stroke-width="3" transform="translate(4 6)"><path stroke="#0093B0" stroke-linecap="round" stroke-linejoin="round" d="M58.216 54.143c7.362-5.011 12.247-13.827 12.247-23.865 0-15.604-11.805-28.254-26.366-28.254-14.562 0-26.367 12.65-26.367 28.254 0 10.04 4.887 18.858 12.252 23.869"/><rect width="25.43" height="5.69" x="31.86" y="66.94" stroke="#00356B" rx="2.84"/><rect width="25.43" height="5.69" x="31.86" y="72.63" stroke="#00356B" rx="2.84"/><path stroke="#00356B" stroke-linejoin="round" d="M38.447 78.314h11.3v.036a5.65 5.65 0 0 1-11.3 0v-.036z"/><path stroke="#0093B0" d="M29.972 54.144c3.12 1.896 5.65 3.971 5.65 7.112m22.599-7.112c-3.12 1.895-5.65 3.97-5.65 7.11"/><rect width="25.43" height="5.69" x="31.86" y="61.26" stroke="#00356B" rx="2.84"/><path stroke="#0093B0" stroke-linecap="round" d="M10.55 30.14H0m13.199-13.794L3 13.604M21.14 5.31L12.01 0m65.44 30.14H88M74.801 16.346L85 13.604M66.86 5.31L75.99 0"/><path stroke="#00356B" stroke-linecap="round" d="M40.061 60.861V33.65c0-4.173-3.595-5.668-5.632-5.668-2.037 0-5.274 1.495-5.274 5.665s3.237 5.459 5.453 5.459h9.489m4.16 21.755V33.65c0-4.173 3.595-5.668 5.633-5.668 2.037 0 5.273 1.495 5.273 5.665s-3.236 5.459-5.453 5.459h-9.488"/></g></svg>