<svg xmlns="http://www.w3.org/2000/svg" width="96" height="96" viewBox="0 0 96 96"><g fill="none" fill-rule="evenodd" transform="translate(7 6)"><path stroke="#0093B0" stroke-linecap="round" stroke-width="3" d="M7.86 42.5h65m-65 17h65M51.5 25.2v50m-22-50v50"/><g stroke-width="3"><path stroke="#00356B" stroke-linejoin="round" d="M1.853 83.368A1.853 1.853 0 0 1 0 81.516V20.379c0-1.023.83-1.853 1.853-1.853h77.81c1.023 0 1.853.83 1.853 1.853v60.99a2 2 0 0 1-2 2H1.853z"/><path stroke="#0093B0" stroke-linejoin="round" d="M9.078 76.884a1.853 1.853 0 0 1-1.853-1.852V26.863c0-1.023.83-1.852 1.853-1.852h62.99c1.023 0 1.852.829 1.852 1.852v48.021a2 2 0 0 1-2 2H9.078z"/><rect width="7.41" height="14.82" x="17.15" stroke="#00356B" stroke-linejoin="round" rx="3.71"/><rect width="7.41" height="14.82" x="56.05" stroke="#00356B" stroke-linejoin="round" rx="3.71"/><path stroke="#00356B" stroke-linejoin="round" d="M63.466 3.705h16.197c1.023 0 1.853.83 1.853 1.853v12.968H0V5.558c0-1.023.83-1.853 1.853-1.853H17.15"/><path stroke="#00356B" d="M24.56 3.71h5.56m-.67 0h22.56m-1.51 0h5.55"/></g><rect width="3" height="3" x="11" y="29" fill="#0093B0" rx="1.5"/><rect width="3" height="3" x="11" y="46" fill="#0093B0" rx="1.5"/><rect width="3" height="3" x="33" y="29" fill="#0093B0" rx="1.5"/><rect width="3" height="3" x="33" y="46" fill="#0093B0" rx="1.5"/><rect width="3" height="3" x="55" y="29" fill="#0093B0" rx="1.5"/><rect width="3" height="3" x="55" y="46" fill="#0093B0" rx="1.5"/><rect width="3" height="3" x="11" y="63" fill="#0093B0" rx="1.5"/><rect width="3" height="3" x="33" y="63" fill="#0093B0" rx="1.5"/><rect width="3" height="3" x="55" y="63" fill="#0093B0" rx="1.5"/></g></svg>