<svg xmlns="http://www.w3.org/2000/svg" width="96" height="96" viewBox="0 0 96 96"><g fill="none" fill-rule="evenodd" stroke-linejoin="round" stroke-width="3"><g stroke="#00356B"><path d="M45 11l31.18 18v36L45 83 13.82 65V29z"/><path d="M45 83V47L13.82 29 45 11l31.18 18L45 47z"/></g><g stroke="#0093B0"><path d="M54 42l8.66 5v10L54 62l-8.66-5V47z"/><path d="M54 62V52l-8.66-5L54 42l8.66 5L54 52z"/></g><g stroke="#0093B0"><path d="M27 47l8.66 5v10L27 67l-8.66-5V52z"/><path d="M27 67V57l-8.66-5L27 47l8.66 5L27 57z"/></g><g stroke="#0093B0"><path d="M45 27l8.66 5v10L45 47l-8.66-5V32z"/><path d="M45 47V37l-8.66-5L45 27l8.66 5L45 37z"/></g><g stroke="#0093B0"><path d="M76 65l8.66 5v10L76 85l-8.66-5V70z"/><path d="M76 85V75l-8.66-5L76 65l8.66 5L76 75z"/></g></g></svg>