<?xml version="1.0" encoding="UTF-8"?>
<svg width="96px" height="96px" viewBox="0 0 96 96" version="1.1" xmlns="http://www.w3.org/2000/svg" xmlns:xlink="http://www.w3.org/1999/xlink">
    <title>icons/entity/people-orgs</title>
    <g id="icons/entity/people-orgs" stroke="none" stroke-width="1" fill="none" fill-rule="evenodd">
        <g id="Group-10" transform="translate(0.000000, 4.000000)">
            <g id="Group-12-Copy" transform="translate(60.724390, 1.500000)" fill-rule="nonzero">
                <path d="M22.4269026,25.5114557 C29.8087239,27.3625948 35.2756102,34.0428675 35.2756102,42 L35.2756102,55.7015286 C35.2756102,56.5001782 34.8006335,57.222317 34.0668882,57.5376893 C27.1819671,60.5125631 20.2680235,62 13.3250576,62 C12.7617725,62 12.1984848,61.9902095 11.6351945,61.9706285 C11.3622191,60.9174729 11.0052188,59.8966049 10.5712963,58.9155482 C11.2585662,58.9583664 11.9463149,58.9843401 12.6338777,58.9947617 L13.3250576,59 C19.3842112,59 25.4304521,57.7923471 31.484906,55.3636447 L32.2756102,55.038 L32.2756102,42 C32.2756102,36.0913384 28.5834788,30.9201407 23.2264599,28.8996502 L22.9196102,28.788 L22.7604727,28.8864934 C20.0482711,30.5091358 16.9491616,31.4187784 13.7171403,31.4948103 L13.2756102,31.5 C9.8841309,31.5 6.62555618,30.5826449 3.79007272,28.8855706 L3.63061016,28.787 C2.87644766,29.0521011 2.15387065,29.3788864 1.4683075,29.7608814 C1.06331736,28.8397549 0.570069607,27.9644227 -1.09314415e-13,27.1466294 C1.28108254,26.4313726 2.6652171,25.8766712 4.12418008,25.5105206 C6.68889246,27.3904662 9.85267856,28.5 13.2756102,28.5 C16.698527,28.5 19.8623006,27.3904758 22.4269026,25.5114557 Z" id="Combined-Shape" fill="#00356B"></path>
                <path d="M13.2756102,-1.5 C6.37205079,-1.5 0.775610161,4.09644063 0.775610161,11 L0.775610161,13 C0.775610161,19.9035594 6.37205079,25.5 13.2756102,25.5 C20.1791695,25.5 25.7756102,19.9035594 25.7756102,13 L25.7756102,11 C25.7756102,4.09644063 20.1791695,-1.5 13.2756102,-1.5 Z M13.2756102,1.5 C18.5223153,1.5 22.7756102,5.75329488 22.7756102,11 L22.7756102,13 C22.7756102,18.2467051 18.5223153,22.5 13.2756102,22.5 C8.02890504,22.5 3.77561016,18.2467051 3.77561016,13 L3.77561016,11 C3.77561016,5.75329488 8.02890504,1.5 13.2756102,1.5 Z" id="Rectangle-Copy-7" fill="#0093B0"></path>
            </g>
            <g id="Group-12-Copy-2" fill-rule="nonzero">
                <path d="M12.6377265,26.8541151 C15.2388597,28.8283823 18.4826068,30 22,30 C25.4229169,30 28.5866905,28.8904758 31.1512924,27.0114557 C32.6099237,27.3772366 33.9937866,27.9315704 35.2754772,28.6470507 C34.7053602,29.4647951 34.2124217,30.3395946 33.8066547,31.2614198 L33.6720793,31.1865295 C33.1207442,30.8875457 32.546074,30.6241491 31.9508497,30.3996502 L31.644,30.288 L31.4848625,30.3864934 C28.772661,32.0091358 25.6735515,32.9187784 22.4415302,32.9948103 L22,33 C18.4946433,33 15.132118,32.0198607 12.2332804,30.2144879 L12.063,30.105 L12.0513352,30.109268 C6.83942949,31.7651701 3.13909707,36.584215 3.00383507,42.1823107 L3,42.5 L2.999,56.531 L3.1005021,56.5746009 C9.20810092,59.0989229 15.2858452,60.4016011 21.3498184,60.4946331 L22.0494474,60.5 C22.9339296,60.5 23.8181526,60.4742652 24.7021669,60.4227584 C24.2683888,61.4021886 23.9122474,62.4214189 23.6396682,63.4720925 C23.1105203,63.491312 22.5800686,63.5 22.0494474,63.5 C15.1046872,63.5 8.1595292,62.0117942 1.21397343,59.0353826 C0.478229132,58.721544 0.000861341864,57.9991019 0,57.1992188 L0,42.5 C0,34.9387565 5.24496088,28.6025392 12.2951144,26.9311164 L12.6377265,26.8541151 Z" id="Combined-Shape" fill="#00356B"></path>
                <path d="M22,0 C15.0964406,0 9.5,5.59644063 9.5,12.5 L9.5,14.5 C9.5,21.4035594 15.0964406,27 22,27 C28.9035594,27 34.5,21.4035594 34.5,14.5 L34.5,12.5 C34.5,5.59644063 28.9035594,0 22,0 Z M22,3 C27.2467051,3 31.5,7.25329488 31.5,12.5 L31.5,14.5 C31.5,19.7467051 27.2467051,24 22,24 C16.7532949,24 12.5,19.7467051 12.5,14.5 L12.5,12.5 C12.5,7.25329488 16.7532949,3 22,3 Z" id="Rectangle-Copy-7" fill="#0093B0"></path>
            </g>
            <g id="Group-12" transform="translate(26.000000, 25.000000)">
                <path d="M12.305854,28.6204645 C15.0631702,30.5273285 18.4009826,31.6458849 22,31.6458849 C25.4903948,31.6458849 28.7349507,30.5937082 31.434794,28.7900431 C34.5631089,29.7217579 37.2768095,31.6156876 39.2342109,34.12759 C41.2810712,36.7542937 42.5,40.057791 42.5,43.6458849 L42.5,43.6458849 L42.5,57.3475744 C35.5088817,60.6961564 28.7939156,62.1458849 22.0494474,62.1458849 C15.3009227,62.1458849 8.5534087,60.6945405 1.80250606,57.8015467 L1.80250606,57.8015467 L1.5,42.6458849 C1.5,39.1996332 2.70204515,36.0340426 4.71025301,33.5460204 C6.62450175,31.1744067 9.27047647,29.4174602 12.305854,28.6204645 Z" id="Combined-Shape-Copy-2" stroke="#00356B" stroke-width="3"></path>
                <path d="M22,0 C15.0964406,0 9.5,5.59644063 9.5,12.5 L9.5,14.5 C9.5,21.4035594 15.0964406,27 22,27 C28.9035594,27 34.5,21.4035594 34.5,14.5 L34.5,12.5 C34.5,5.59644063 28.9035594,0 22,0 Z M22,3 C27.2467051,3 31.5,7.25329488 31.5,12.5 L31.5,14.5 C31.5,19.7467051 27.2467051,24 22,24 C16.7532949,24 12.5,19.7467051 12.5,14.5 L12.5,12.5 C12.5,7.25329488 16.7532949,3 22,3 Z" id="Rectangle-Copy-7" fill="#0093B0" fill-rule="nonzero"></path>
            </g>
        </g>
    </g>
</svg>