<svg xmlns="http://www.w3.org/2000/svg" width="96" height="96" viewBox="0 0 96 96"><g fill="none" fill-rule="evenodd" stroke-linejoin="round" stroke-width="3"><path stroke="#00356B" d="M23 77a4 4 0 0 1-4-4V31a4 4 0 0 1 4-4h61a4 4 0 0 1 4 4v42a4 4 0 0 1-4 4h-8v11L66 77H23z"/><path stroke="#0093B0" stroke-linecap="round" d="M33.5 39.5h16m-16 16h11m-11 8h20m-20-16l15.5.17m5.5-8.17h18m-22 16h21M59 63.67h16M54.5 47.5h21"/><path stroke="#00356B" d="M19 58h-7a4 4 0 0 1-4-4V12a4 4 0 0 1 4-4h61a4 4 0 0 1 4 4v15"/></g></svg>