  <svg
    xmlns:xlink="http://www.w3.org/1999/xlink"
    xmlns="http://www.w3.org/2000/svg"
    version="1.1"
    width="15px"
    height="15px"
    viewBox="0 0 15 15"
  >
    <g transform="matrix(1 0 0 1 -1170 -9 )">
      <path
        d="M 14.646464646464647 11.212121212121211  C 14.882154882154882 11.447811447811446  15 11.734006734006732  15 12.070707070707071  C 15 12.407407407407408  14.882154882154882 12.693602693602692  14.646464646464647 12.929292929292929  L 12.929292929292929 14.646464646464647  C 12.693602693602696 14.882154882154882  12.407407407407408 15  12.070707070707071 15  C 11.734006734006735 15  11.44781144781145 14.882154882154882  11.212121212121213 14.646464646464647  L 7.5 10.934343434343436  L 3.787878787878788 14.646464646464647  C 3.552188552188553 14.882154882154882  3.265993265993266 15  2.929292929292929 15  C 2.592592592592593 15  2.3063973063973067 14.882154882154882  2.070707070707071 14.646464646464647  L 0.35353535353535354 12.929292929292929  C 0.11784511784511796 12.693602693602692  0 12.407407407407408  0 12.070707070707071  C 0 11.734006734006732  0.11784511784511796 11.447811447811446  0.35353535353535354 11.212121212121211  L 4.065656565656566 7.5  L 0.35353535353535354 3.787878787878787  C 0.11784511784511796 3.552188552188551  0 3.265993265993266  0 2.929292929292929  C 0 2.5925925925925926  0.11784511784511796 2.3063973063973044  0.35353535353535354 2.0707070707070714  L 2.070707070707071 0.3535353535353536  C 2.3063973063973067 0.11784511784511731  2.592592592592593 0  2.929292929292929 0  C 3.265993265993266 0  3.552188552188553 0.11784511784511731  3.787878787878788 0.3535353535353536  L 7.5 4.065656565656567  L 11.212121212121213 0.3535353535353536  C 11.44781144781145 0.11784511784511731  11.734006734006735 0  12.070707070707071 0  C 12.407407407407408 0  12.693602693602696 0.11784511784511731  12.929292929292929 0.3535353535353536  L 14.646464646464647 2.0707070707070714  C 14.882154882154882 2.3063973063973044  15 2.5925925925925926  15 2.929292929292929  C 15 3.265993265993266  14.882154882154882 3.552188552188551  14.646464646464647 3.787878787878787  L 10.934343434343434 7.5  L 14.646464646464647 11.212121212121211  Z "
        fillRule="nonzero"
        fill="#fff"
        stroke="none"
        transform="matrix(1 0 0 1 1170 9 )"
      />
    </g>
  </svg>