  <svg
    version="1.1"
    xmlns:xlink="http://www.w3.org/1999/xlink"
    width="30px"
    height="30px"
    xmlns="http://www.w3.org/2000/svg"
  >
    <g transform="matrix(1 0 0 1 -1160 -15 )">
      <path
        d="M 18.3984375 18.3984375  C 19.978966346153847 16.817908653846153  20.76923076923077 14.915865384615383  20.76923076923077 12.692307692307693  C 20.76923076923077 10.468749999999998  19.978966346153847 8.56670673076923  18.3984375 6.986177884615384  C 16.817908653846157 5.4056490384615365  14.915865384615385 4.615384615384616  12.692307692307692 4.615384615384616  C 10.468750000000002 4.615384615384616  8.566706730769232 5.4056490384615365  6.986177884615384 6.986177884615384  C 5.405649038461539 8.56670673076923  4.615384615384616 10.468749999999998  4.615384615384616 12.692307692307693  C 4.615384615384616 14.915865384615383  5.405649038461539 16.817908653846153  6.986177884615384 18.3984375  C 8.566706730769232 19.97896634615384  10.468750000000002 20.76923076923077  12.692307692307692 20.76923076923077  C 14.915865384615385 20.76923076923077  16.817908653846157 19.97896634615384  18.3984375 18.3984375  Z M 29.332932692307693 26.069711538461537  C 29.777644230769234 26.51442307692308  30 27.055288461538463  30 27.692307692307693  C 30 28.317307692307693  29.771634615384617 28.85817307692308  29.314903846153847 29.314903846153847  C 28.85817307692308 29.771634615384613  28.317307692307693 30  27.692307692307693 30  C 27.04326923076923 30  26.502403846153847 29.771634615384613  26.069711538461537 29.314903846153847  L 19.885817307692307 23.149038461538463  C 17.734375 24.63942307692308  15.336538461538463 25.384615384615383  12.692307692307692 25.384615384615383  C 10.973557692307693 25.384615384615383  9.329927884615385 25.05108173076923  7.761418269230768 24.384014423076927  C 6.192908653846154 23.716947115384617  4.8407451923076925 22.815504807692307  3.7049278846153846 21.6796875  C 2.569110576923077 20.543870192307693  1.6676682692307696 19.19170673076923  1.0006009615384615 17.623197115384617  C 0.33353365384615385 16.0546875  0 14.41105769230769  0 12.692307692307693  C 0 10.973557692307688  0.33353365384615385 9.329927884615385  1.0006009615384615 7.761418269230768  C 1.6676682692307696 6.192908653846153  2.569110576923077 4.840745192307693  3.7049278846153846 3.704927884615384  C 4.8407451923076925 2.5691105769230784  6.192908653846154 1.6676682692307687  7.761418269230768 1.0006009615384626  C 9.329927884615385 0.3335336538461531  10.973557692307693 0  12.692307692307692 0  C 14.411057692307693 0  16.0546875 0.3335336538461531  17.623197115384617 1.0006009615384626  C 19.19170673076923 1.6676682692307687  20.543870192307693 2.5691105769230784  21.6796875 3.704927884615384  C 22.815504807692307 4.840745192307693  23.716947115384617 6.192908653846153  24.384014423076923 7.761418269230768  C 25.05108173076923 9.329927884615385  25.384615384615383 10.973557692307688  25.384615384615383 12.692307692307693  C 25.384615384615383 15.33653846153846  24.63942307692308 17.734374999999996  23.149038461538463 19.885817307692307  L 29.332932692307693 26.069711538461537  Z "
        fillRule="nonzero"
        fill="#fff"
        stroke="none"
        transform="matrix(1 0 0 1 1160 15 )"
      />
    </g>
  </svg>